# xmcd CD database file
#
# Track frame offsets:
#	150
#	14015
#	25212
#	41347
#	58537
#	71548
#	86065
#	99007
#	111761
#	131561
#	151866
#	164805
#	178877
#	191359
#	209206
#	228145
#
# Disc length: 3341 seconds
#
# Revision: 0
# Processed by: cddbd v1.5.1PL2 Copyright (c) Steve Scherf et al.
# Submitted via: CDex 1.51
#
DISCID=d60d0b10
DTITLE=Compilation - Lady Sings the Blues Again 2 of 2
DYEAR=2005
DGENRE=Blues
TTITLE0=Pearl Bailey - Frankie and Johnny
TTITLE1=Ella Fitzgerald - Misty Blue
TTITLE2=Sarah Vaughan - 'Round Midnight
TTITLE3=Rosemary Clooney - One For My Baby
TTITLE4=Betty Hutton - Blue Skies
TTITLE5=Jo Stafford - Some Enchanted Evening
TTITLE6=Peggy Lee - As Time Goes By
TTITLE7=Dusty Springfield - You Don't Have to Say You Love Me
TTITLE8=Gladys Knight and The Pips - Neither One of Us
TTITLE9=The Staple Singers - I'll Take You There
TTITLE10=Irma Thomas - Time is On My Side
TTITLE11=Etta James - I Just Want to Make Love to You
TTITLE12=Aretha Franklin - Chain of Fools
TTITLE13=Janis Joplin - Cry Baby
TTITLE14=Cassandra Wilson - Death Letter
TTITLE15=Patricia O'Callaghan - The Ballad of Lucy Jordan
EXTD=YEAR: 2005
EXTT0=
EXTT1=
EXTT2=
EXTT3=
EXTT4=
EXTT5=
EXTT6=
EXTT7=
EXTT8=
EXTT9=
EXTT10=
EXTT11=
EXTT12=
EXTT13=
EXTT14=
EXTT15=
PLAYORDER=
